<svg id="visual" viewBox="0 0 900 450" width="900" height="450" xmlns="http://www.w3.org/2000/svg" xmlns:xlink="http://www.w3.org/1999/xlink" version="1.1"><rect x="0" y="0" width="900" height="450" fill="#000000"></rect><path d="M0 98L13.7 94.8C27.3 91.7 54.7 85.3 82 82.7C109.3 80 136.7 81 163.8 84.3C191 87.7 218 93.3 245.2 94.7C272.3 96 299.7 93 327 93.5C354.3 94 381.7 98 409 99.2C436.3 100.3 463.7 98.7 491 96C518.3 93.3 545.7 89.7 573 87C600.3 84.3 627.7 82.7 654.8 84C682 85.3 709 89.7 736.2 89.3C763.3 89 790.7 84 818 82C845.3 80 872.7 81 886.3 81.5L900 82L900 0L886.3 0C872.7 0 845.3 0 818 0C790.7 0 763.3 0 736.2 0C709 0 682 0 654.8 0C627.7 0 600.3 0 573 0C545.7 0 518.3 0 491 0C463.7 0 436.3 0 409 0C381.7 0 354.3 0 327 0C299.7 0 272.3 0 245.2 0C218 0 191 0 163.8 0C136.7 0 109.3 0 82 0C54.7 0 27.3 0 13.7 0L0 0Z" fill="#0066ff"></path><path d="M0 81L13.7 81.5C27.3 82 54.7 83 82 82.8C109.3 82.7 136.7 81.3 163.8 80.5C191 79.7 218 79.3 245.2 76C272.3 72.7 299.7 66.3 327 66.7C354.3 67 381.7 74 409 77.8C436.3 81.7 463.7 82.3 491 81.8C518.3 81.3 545.7 79.7 573 78.5C600.3 77.3 627.7 76.7 654.8 74.7C682 72.7 709 69.3 736.2 69.5C763.3 69.7 790.7 73.3 818 75.5C845.3 77.7 872.7 78.3 886.3 78.7L900 79L900 0L886.3 0C872.7 0 845.3 0 818 0C790.7 0 763.3 0 736.2 0C709 0 682 0 654.8 0C627.7 0 600.3 0 573 0C545.7 0 518.3 0 491 0C463.7 0 436.3 0 409 0C381.7 0 354.3 0 327 0C299.7 0 272.3 0 245.2 0C218 0 191 0 163.8 0C136.7 0 109.3 0 82 0C54.7 0 27.3 0 13.7 0L0 0Z" fill="#2059ff"></path><path d="M0 47L13.7 48.2C27.3 49.3 54.7 51.7 82 54.2C109.3 56.7 136.7 59.3 163.8 60.2C191 61 218 60 245.2 60C272.3 60 299.7 61 327 59C354.3 57 381.7 52 409 51C436.3 50 463.7 53 491 55.8C518.3 58.7 545.7 61.3 573 62.5C600.3 63.7 627.7 63.3 654.8 63.5C682 63.7 709 64.3 736.2 64.2C763.3 64 790.7 63 818 60.2C845.3 57.3 872.7 52.7 886.3 50.3L900 48L900 0L886.3 0C872.7 0 845.3 0 818 0C790.7 0 763.3 0 736.2 0C709 0 682 0 654.8 0C627.7 0 600.3 0 573 0C545.7 0 518.3 0 491 0C463.7 0 436.3 0 409 0C381.7 0 354.3 0 327 0C299.7 0 272.3 0 245.2 0C218 0 191 0 163.8 0C136.7 0 109.3 0 82 0C54.7 0 27.3 0 13.7 0L0 0Z" fill="#3849ff"></path><path d="M0 36L13.7 36C27.3 36 54.7 36 82 35.3C109.3 34.7 136.7 33.3 163.8 33.8C191 34.3 218 36.7 245.2 37.8C272.3 39 299.7 39 327 38.5C354.3 38 381.7 37 409 36.7C436.3 36.3 463.7 36.7 491 37C518.3 37.3 545.7 37.7 573 38.2C600.3 38.7 627.7 39.3 654.8 39C682 38.7 709 37.3 736.2 36.2C763.3 35 790.7 34 818 33.7C845.3 33.3 872.7 33.7 886.3 33.8L900 34L900 0L886.3 0C872.7 0 845.3 0 818 0C790.7 0 763.3 0 736.2 0C709 0 682 0 654.8 0C627.7 0 600.3 0 573 0C545.7 0 518.3 0 491 0C463.7 0 436.3 0 409 0C381.7 0 354.3 0 327 0C299.7 0 272.3 0 245.2 0C218 0 191 0 163.8 0C136.7 0 109.3 0 82 0C54.7 0 27.3 0 13.7 0L0 0Z" fill="#4f34ff"></path><path d="M0 27L13.7 26.3C27.3 25.7 54.7 24.3 82 22.5C109.3 20.7 136.7 18.3 163.8 17.5C191 16.7 218 17.3 245.2 17.3C272.3 17.3 299.7 16.7 327 18C354.3 19.3 381.7 22.7 409 24.3C436.3 26 463.7 26 491 24.8C518.3 23.7 545.7 21.3 573 21.3C600.3 21.3 627.7 23.7 654.8 23.5C682 23.3 709 20.7 736.2 19.5C763.3 18.3 790.7 18.7 818 18.7C845.3 18.7 872.7 18.3 886.3 18.2L900 18L900 0L886.3 0C872.7 0 845.3 0 818 0C790.7 0 763.3 0 736.2 0C709 0 682 0 654.8 0C627.7 0 600.3 0 573 0C545.7 0 518.3 0 491 0C463.7 0 436.3 0 409 0C381.7 0 354.3 0 327 0C299.7 0 272.3 0 245.2 0C218 0 191 0 163.8 0C136.7 0 109.3 0 82 0C54.7 0 27.3 0 13.7 0L0 0Z" fill="#6600ff"></path></svg>